<svg width="24" height="24" viewBox="0 0 24 24" fill="none" xmlns="http://www.w3.org/2000/svg">
<path d="M5.50012 3C5.1023 3 4.72077 3.15804 4.43946 3.43934C4.15816 3.72064 4.00012 4.10218 4.00012 4.5V7.5C4.00012 7.89782 4.15816 8.27936 4.43946 8.56066C4.72077 8.84196 5.1023 9 5.50012 9H14.5001C14.8979 9 15.2795 8.84196 15.5608 8.56066C15.8421 8.27936 16.0001 7.89782 16.0001 7.5V4.5C16.0001 4.10218 15.8421 3.72064 15.5608 3.43934C15.2795 3.15804 14.8979 3 14.5001 3H5.50012ZM5.50012 4.5H14.5001V7.5H5.50012V4.5ZM8.50012 12C8.50012 11.6022 8.65816 11.2206 8.93946 10.9393C9.22077 10.658 9.6023 10.5 10.0001 10.5C10.3979 10.5 10.7795 10.658 11.0608 10.9393C11.3421 11.2206 11.5001 11.6022 11.5001 12C11.5001 12.3978 11.3421 12.7794 11.0608 13.0607C10.7795 13.342 10.3979 13.5 10.0001 13.5C9.6023 13.5 9.22077 13.342 8.93946 13.0607C8.65816 12.7794 8.50012 12.3978 8.50012 12ZM10.0001 14.625C9.6023 14.625 9.22077 14.783 8.93946 15.0643C8.65816 15.3456 8.50012 15.7272 8.50012 16.125C8.50012 16.5228 8.65816 16.9044 8.93946 17.1857C9.22077 17.467 9.6023 17.625 10.0001 17.625C10.3979 17.625 10.7795 17.467 11.0608 17.1857C11.3421 16.9044 11.5001 16.5228 11.5001 16.125C11.5001 15.7272 11.3421 15.3456 11.0608 15.0643C10.7795 14.783 10.3979 14.625 10.0001 14.625ZM13.0001 12C13.0001 11.6022 13.1582 11.2206 13.4395 10.9393C13.7208 10.658 14.1023 10.5 14.5001 10.5C14.8979 10.5 15.2795 10.658 15.5608 10.9393C15.8421 11.2206 16.0001 11.6022 16.0001 12C16.0001 12.3978 15.8421 12.7794 15.5608 13.0607C15.2795 13.342 14.8979 13.5 14.5001 13.5C14.1023 13.5 13.7208 13.342 13.4395 13.0607C13.1582 12.7794 13.0001 12.3978 13.0001 12ZM14.5001 14.625C14.1023 14.625 13.7208 14.783 13.4395 15.0643C13.1582 15.3456 13.0001 15.7272 13.0001 16.125C13.0001 16.5228 13.1582 16.9044 13.4395 17.1857C13.7208 17.467 14.1023 17.625 14.5001 17.625C14.8979 17.625 15.2795 17.467 15.5608 17.1857C15.8421 16.9044 16.0001 16.5228 16.0001 16.125C16.0001 15.7272 15.8421 15.3456 15.5608 15.0643C15.2795 14.783 14.8979 14.625 14.5001 14.625ZM4.00012 12C4.00012 11.6022 4.15816 11.2206 4.43946 10.9393C4.72077 10.658 5.1023 10.5 5.50012 10.5C5.89795 10.5 6.27948 10.658 6.56078 10.9393C6.84209 11.2206 7.00012 11.6022 7.00012 12C7.00012 12.3978 6.84209 12.7794 6.56078 13.0607C6.27948 13.342 5.89795 13.5 5.50012 13.5C5.1023 13.5 4.72077 13.342 4.43946 13.0607C4.15816 12.7794 4.00012 12.3978 4.00012 12ZM5.50012 14.625C5.1023 14.625 4.72077 14.783 4.43946 15.0643C4.15816 15.3456 4.00012 15.7272 4.00012 16.125C4.00012 16.5228 4.15816 16.9044 4.43946 17.1857C4.72077 17.467 5.1023 17.625 5.50012 17.625C5.89795 17.625 6.27948 17.467 6.56078 17.1857C6.84209 16.9044 7.00012 16.5228 7.00012 16.125C7.00012 15.7272 6.84209 15.3456 6.56078 15.0643C6.27948 14.783 5.89795 14.625 5.50012 14.625ZM4.75012 0C3.75556 0 2.80173 0.395088 2.09847 1.09835C1.39521 1.80161 1.00012 2.75544 1.00012 3.75V17.25C1.00012 18.2446 1.39521 19.1984 2.09847 19.9016C2.80173 20.6049 3.75556 21 4.75012 21H15.2501C16.2447 21 17.1985 20.6049 17.9018 19.9016C18.605 19.1984 19.0001 18.2446 19.0001 17.25V3.75C19.0001 2.75544 18.605 1.80161 17.9018 1.09835C17.1985 0.395088 16.2447 0 15.2501 0H4.75012ZM2.50012 3.75C2.50012 3.15326 2.73717 2.58097 3.15913 2.15901C3.58109 1.73705 4.15339 1.5 4.75012 1.5H15.2501C15.8469 1.5 16.4192 1.73705 16.8411 2.15901C17.2631 2.58097 17.5001 3.15326 17.5001 3.75V17.25C17.5001 17.8467 17.2631 18.419 16.8411 18.841C16.4192 19.2629 15.8469 19.5 15.2501 19.5H4.75012C4.15339 19.5 3.58109 19.2629 3.15913 18.841C2.73717 18.419 2.50012 17.8467 2.50012 17.25V3.75ZM7.75012 24C7.16787 24.0005 6.59354 23.8651 6.07275 23.6047C5.55197 23.3443 5.0991 22.9661 4.75012 22.5H15.2501C16.6425 22.5 17.9779 21.9469 18.9624 20.9623C19.947 19.9777 20.5001 18.6424 20.5001 17.25V3.75C21.4106 4.434 22.0001 5.523 22.0001 6.75V17.25C22.0001 19.0402 21.289 20.7571 20.0231 22.023C18.7572 23.2888 17.0403 24 15.2501 24H7.75012Z" fill="white"/>
</svg>
