<svg width="1091" height="442" viewBox="0 0 1091 442" fill="none" xmlns="http://www.w3.org/2000/svg">
<g opacity="0.8" clip-path="url(#clip0_436_23139)">
<path d="M91.1566 437.896C91.1566 437.896 72.2684 414.914 107.171 398.908C142.073 382.903 139.609 407.116 177.385 380.03C215.162 352.943 201.612 328.319 242.262 333.655C282.913 338.99 252.938 376.747 282.913 376.747C312.888 376.747 318.226 338.99 350.254 349.66C382.282 360.331 404.455 437.486 404.455 437.486H91.1566V437.896Z" fill="url(#paint0_linear_436_23139)"/>
<path d="M578.626 438.522C578.626 438.522 563.433 408.153 606.137 387.222C647.609 367.113 660.338 400.766 720.698 366.292C770.793 337.564 809.801 366.292 828.689 380.656C847.578 395.02 866.466 374.91 904.242 406.922C935.038 432.777 911.633 441.805 911.633 441.805L578.626 438.522Z" fill="url(#paint1_linear_436_23139)"/>
<path d="M1022.02 359.099C960.014 384.544 918.131 353.354 905.402 288.921C892.673 224.488 895.137 174.83 928.397 203.968C961.656 233.107 935.788 133.79 973.975 80.8486C1012.16 28.3175 1029.41 108.345 1034.75 136.663C1047.47 201.096 1082.79 169.084 1090.59 224.488C1095.52 263.066 1065.13 341.452 1022.02 359.099Z" fill="url(#paint2_linear_436_23139)"/>
<path d="M993.274 437.896C991.632 437.896 989.989 436.254 989.989 434.613V230.644C989.989 229.003 991.632 227.361 993.274 227.361C994.917 227.361 996.559 229.003 996.559 230.644V434.613C996.559 436.254 994.917 437.896 993.274 437.896Z" fill="url(#paint3_linear_436_23139)"/>
<path d="M988.347 334.886C980.956 334.886 974.797 332.013 969.869 326.678C954.677 309.851 957.961 272.916 957.961 271.274C957.961 269.632 959.604 267.991 961.657 268.401C963.299 268.401 964.942 270.043 964.531 272.095C964.531 272.505 961.657 308.21 974.797 322.574C978.492 326.678 983.009 328.73 988.757 328.73C1018.32 328.73 1026.53 282.765 1026.53 282.355C1026.94 280.713 1028.59 279.482 1030.23 279.482C1031.87 279.892 1033.1 281.534 1033.1 283.176C1032.28 285.228 1023.25 334.886 988.347 334.886Z" fill="url(#paint4_linear_436_23139)"/>
<path d="M152.748 373.874C49.2732 411.22 -3.28537 324.215 -0.00045982 231.876C3.28445 139.536 56.6642 207.252 60.3597 150.206C64.0552 93.571 49.6838 15.5952 74.7312 1.23118C99.7786 -13.1328 163.424 57.8663 174.1 121.478C184.776 185.09 179.848 211.766 223.784 227.772C262.382 242.546 191.345 359.51 152.748 373.874Z" fill="url(#paint5_linear_436_23139)"/>
<path d="M110.045 437.896C108.402 437.896 106.76 436.254 106.76 434.613V184.269C106.76 182.628 108.402 180.986 110.045 180.986C111.687 180.986 113.33 182.628 113.33 184.269V434.613C113.33 436.254 111.687 437.896 110.045 437.896Z" fill="url(#paint6_linear_436_23139)"/>
<path d="M109.223 337.759C62.8237 334.886 62.4131 285.638 62.4131 285.228C62.4131 283.586 64.0555 281.944 65.698 281.944C67.3404 281.944 68.9829 283.586 68.9829 285.228C68.9829 286.869 69.3935 328.73 109.634 331.192C111.276 331.192 112.919 332.834 112.508 334.475C112.508 336.117 110.865 337.759 109.223 337.759Z" fill="url(#paint7_linear_436_23139)"/>
<path d="M115.383 250.344C114.151 250.344 112.919 250.344 111.687 250.344C110.045 250.344 108.402 248.702 108.813 247.06C108.813 245.419 110.455 243.777 112.098 244.188C122.363 245.008 129.754 242.546 134.681 236.8C144.947 225.309 141.251 204.379 141.251 204.379C140.841 202.737 142.073 201.096 143.715 200.685C145.357 200.275 147 201.506 147.411 203.148C147.411 203.968 151.517 227.361 139.198 241.315C134.271 247.06 126.059 250.344 115.383 250.344Z" fill="url(#paint8_linear_436_23139)"/>
</g>
<path d="M471.304 380.728L493.774 387.203C496.06 387.965 498.726 386.441 499.487 384.156C500.249 381.871 498.726 379.205 496.441 378.443L473.97 371.968C471.685 371.207 469.019 372.73 468.257 375.015C467.495 377.681 468.638 380.347 471.304 380.728Z" fill="url(#paint9_linear_436_23139)"/>
<path d="M530.336 355.21C530.336 355.21 548.999 385.299 542.143 385.299C535.288 385.679 504.057 368.541 504.057 368.541L517.387 350.64L530.336 355.21Z" fill="url(#paint10_linear_436_23139)"/>
<path d="M515.483 200.581C515.483 200.581 568.804 235.62 569.566 286.655C570.327 337.691 535.669 367.398 535.669 367.398L516.626 354.83C516.626 354.83 551.665 329.312 539.859 282.466C533.384 256.567 461.02 231.431 461.02 231.431L515.483 200.581Z" fill="#FCD5C6"/>
<path d="M553.95 236.001L521.196 264.185L461.02 231.431L515.483 200.581C515.483 200.581 551.665 221.528 553.95 236.001Z" fill="url(#paint11_linear_436_23139)"/>
<path d="M660.972 431.764C702.867 431.764 736.764 397.867 736.764 355.972C736.764 314.078 702.867 280.181 660.972 280.181C619.078 280.181 585.181 314.078 585.181 355.972C585.181 397.867 619.078 431.764 660.972 431.764ZM660.972 293.892C695.25 293.892 722.672 321.695 722.672 355.591C722.672 389.869 694.869 417.291 660.972 417.291C627.076 417.291 599.273 389.488 599.273 355.591C598.892 321.695 626.695 293.892 660.972 293.892Z" fill="url(#paint12_linear_436_23139)"/>
<path d="M429.028 431.002C470.542 431.002 504.058 397.486 504.058 355.972C504.058 314.458 470.542 280.943 429.028 280.943C387.514 280.943 353.998 314.458 353.998 355.972C353.998 397.105 387.895 431.002 429.028 431.002ZM429.028 294.654C462.925 294.654 490.347 322.076 490.347 355.972C490.347 389.869 462.925 417.291 429.028 417.291C395.131 417.291 367.709 389.869 367.709 355.972C368.09 322.076 395.512 294.654 429.028 294.654Z" fill="url(#paint13_linear_436_23139)"/>
<path d="M429.028 439C474.731 439 512.056 401.676 512.056 355.972C512.056 310.269 474.731 272.945 429.028 272.945C383.325 272.945 346 310.269 346 355.972C346 401.676 383.325 439 429.028 439ZM429.028 288.179C466.352 288.179 496.821 318.648 496.821 355.972C496.821 393.297 466.352 423.766 429.028 423.766C391.704 423.766 361.235 393.297 361.235 355.972C361.235 318.648 391.704 288.179 429.028 288.179Z" fill="url(#paint14_linear_436_23139)"/>
<path d="M429.028 375.015C439.692 375.015 448.452 366.255 448.452 355.591C448.452 344.927 439.692 336.167 429.028 336.167C418.364 336.167 409.604 344.927 409.604 355.591C409.604 366.255 418.745 375.015 429.028 375.015ZM429.028 340.357C437.407 340.357 444.644 347.212 444.644 355.972C444.644 364.732 437.788 371.588 429.028 371.588C420.649 371.588 413.413 364.732 413.413 355.972C413.413 347.212 420.649 340.357 429.028 340.357Z" fill="url(#paint15_linear_436_23139)"/>
<path d="M660.972 439C706.676 439 744 401.676 744 355.972C744 310.269 706.676 272.945 660.972 272.945C615.269 272.945 577.945 310.269 577.945 355.972C577.945 401.676 614.888 439 660.972 439ZM660.972 288.179C698.297 288.179 728.766 318.648 728.766 355.972C728.766 393.297 698.297 423.766 660.972 423.766C623.648 423.766 593.179 393.297 593.179 355.972C593.179 318.648 623.648 288.179 660.972 288.179Z" fill="url(#paint16_linear_436_23139)"/>
<path d="M660.973 375.015C671.637 375.015 680.396 366.255 680.396 355.591C680.396 344.927 671.637 336.167 660.973 336.167C650.308 336.167 641.549 344.927 641.549 355.591C641.549 366.255 650.308 375.015 660.973 375.015ZM660.973 340.357C669.352 340.357 676.588 347.212 676.588 355.972C676.588 364.732 669.732 371.588 660.973 371.588C652.594 371.588 645.357 364.732 645.357 355.972C645.357 347.212 652.213 340.357 660.973 340.357Z" fill="url(#paint17_linear_436_23139)"/>
<path d="M520.434 373.873C509.286 373.873 500.249 364.835 500.249 353.687C500.249 342.539 509.286 333.501 520.434 333.501C531.583 333.501 540.62 342.539 540.62 353.687C540.62 364.835 531.583 373.873 520.434 373.873Z" stroke="#1E1B1B" stroke-width="1.0762" stroke-miterlimit="10" stroke-linecap="round" stroke-linejoin="round"/>
<path d="M429.028 361.685C429.409 361.685 429.409 361.685 429.028 361.685L516.245 358.638C517.769 358.638 519.292 357.877 520.435 356.734L613.365 250.093C614.888 248.189 615.269 245.903 614.127 243.618C612.984 241.714 611.08 240.19 608.795 240.571L486.919 248.95C485.015 248.95 483.491 250.093 482.349 251.616L424.077 352.925C422.934 354.83 422.934 357.115 424.077 358.638C425.219 360.543 427.124 361.685 429.028 361.685ZM513.579 347.212L439.311 349.878L490.728 260.376L595.845 253.14L513.579 347.212Z" fill="url(#paint18_linear_436_23139)"/>
<path d="M520.434 352.164C521.196 352.164 521.958 352.164 522.338 351.783C525.385 350.64 526.909 347.212 525.766 344.546L480.063 223.433C478.92 220.386 475.492 218.862 472.826 220.005C469.78 221.147 468.256 224.575 469.399 227.241L515.102 348.355C515.864 350.64 518.149 352.164 520.434 352.164Z" fill="#AFD3DD"/>
<path d="M660.973 361.685C661.734 361.685 662.496 361.685 663.258 361.304C666.305 360.162 667.447 356.734 666.305 353.687L614.127 234.478L656.402 229.526C656.783 234.858 655.26 243.999 640.787 252.378C638.121 253.902 636.978 257.329 638.883 260.376C640.406 263.042 643.834 264.185 646.881 262.28C670.494 248.569 669.732 229.146 666.305 221.147C665.162 218.862 662.877 217.339 660.592 217.72L604.986 223.813C603.082 224.194 601.558 224.956 600.797 226.48C600.035 228.003 599.654 229.907 600.416 231.431L655.641 358.258C656.783 360.543 658.687 361.685 660.973 361.685Z" fill="url(#paint19_linear_436_23139)"/>
<path d="M500.63 221.909L461.02 231.812C459.116 232.192 456.831 231.812 455.307 230.288L447.69 223.433C443.501 219.624 445.786 212.768 451.499 212.388L498.726 209.341C501.011 209.341 503.296 210.483 504.438 212.388C506.724 216.196 504.819 220.767 500.63 221.909Z" fill="#4DAFA9"/>
<path d="M517.768 191.059L553.188 370.445L534.907 377.681C517.007 328.169 493.393 250.855 461.401 231.811C447.309 223.433 448.832 190.298 448.832 190.298L517.768 191.059Z" fill="#FCD5C6"/>
<path d="M569.566 82.133C569.566 100.795 577.945 116.791 599.654 116.791C621.363 116.791 620.982 51.2832 599.654 48.9981C560.425 44.8086 569.566 63.4708 569.566 82.133Z" fill="#FCD5C6"/>
<path d="M595.083 63.4708C595.083 63.4708 607.27 69.1837 617.554 62.3282C627.456 55.8536 619.839 41 619.839 41C619.839 41 609.556 51.6641 599.653 48.9981C589.751 45.9512 565.757 42.9043 556.616 64.2325C547.475 85.5608 572.231 105.746 572.231 105.746C572.231 105.746 585.18 102.319 585.942 89.7502C586.704 77.9435 584.419 66.1368 595.083 63.4708Z" fill="url(#paint20_linear_436_23139)"/>
<path d="M608.032 74.5158L622.124 98.5101L608.032 99.6526V74.5158Z" fill="#FCD5C6"/>
<path d="M584.038 96.2249C580.673 96.2249 577.944 92.1325 577.944 87.0842C577.944 82.036 580.673 77.9435 584.038 77.9435C587.404 77.9435 590.132 82.036 590.132 87.0842C590.132 92.1325 587.404 96.2249 584.038 96.2249Z" fill="#FCD5C6"/>
<path d="M554.712 95.4632C528.052 93.5589 507.866 101.938 481.206 128.598C454.546 155.258 448.452 190.298 448.452 190.298L517.769 191.059C517.769 191.059 530.337 179.633 558.902 152.973C579.849 133.549 581.372 97.7483 554.712 95.4632Z" fill="url(#paint21_linear_436_23139)"/>
<path d="M643.834 233.716C643.834 233.716 586.324 94.3206 560.806 108.412C538.335 120.6 629.742 242.476 629.742 242.476L643.834 233.716Z" fill="#FCD5C6"/>
<path d="M554.712 95.4631C554.712 95.4631 566.518 96.6057 581.372 110.317C596.226 124.028 602.7 141.166 602.7 141.166L571.85 158.305C571.85 158.305 533.383 106.127 554.712 95.4631Z" fill="url(#paint22_linear_436_23139)"/>
<path d="M643.834 233.716C643.834 233.716 665.162 240.19 660.972 247.427C656.783 255.044 634.312 268.755 630.123 242.095C625.933 215.815 643.834 233.716 643.834 233.716Z" fill="#FCD5C6"/>
<path d="M542.144 397.867L564.614 391.011C566.9 390.25 568.423 387.584 567.661 385.299C566.9 383.013 564.233 381.49 561.948 382.252L539.477 389.107C537.192 389.869 535.669 392.535 536.431 394.82C537.192 397.486 539.858 398.629 542.144 397.867Z" fill="url(#paint23_linear_436_23139)"/>
<path d="M517.768 191.059L448.452 190.298C448.452 190.298 444.643 224.575 465.21 239.429C485.776 254.282 484.253 262.661 484.253 262.661L529.575 250.474L517.768 191.059Z" fill="url(#paint24_linear_436_23139)"/>
<path d="M551.284 362.828C551.284 362.828 578.706 371.588 573.755 376.539C568.803 381.109 534.526 389.488 534.526 389.488L531.479 368.16L551.284 362.828Z" fill="url(#paint25_linear_436_23139)"/>
<path d="M556.235 84.4182C556.235 84.4182 538.335 97.3675 537.954 93.5589C537.573 89.7502 555.854 78.3244 555.854 78.3244L556.235 84.4182Z" fill="url(#paint26_linear_436_23139)"/>
<path d="M606.89 48.9981L556.235 84.4182C556.235 84.4182 544.428 58.5196 566.899 45.9512C589.37 33.3828 606.89 48.9981 606.89 48.9981Z" fill="url(#paint27_linear_436_23139)"/>
<defs>
<linearGradient id="paint0_linear_436_23139" x1="86.0537" y1="332.921" x2="148.486" y2="522.287" gradientUnits="userSpaceOnUse">
<stop stop-color="#FD6585"/>
<stop offset="1" stop-color="#0D25B9"/>
</linearGradient>
<linearGradient id="paint1_linear_436_23139" x1="907.858" y1="441.805" x2="607.666" y2="334.232" gradientUnits="userSpaceOnUse">
<stop stop-color="#71B4F8"/>
<stop offset="1" stop-color="#E0F5FB"/>
</linearGradient>
<linearGradient id="paint2_linear_436_23139" x1="898.288" y1="74.4586" x2="1110.86" y2="87.7763" gradientUnits="userSpaceOnUse">
<stop stop-color="#FF938A"/>
<stop offset="0.510417" stop-color="#FF6E89"/>
<stop offset="1" stop-color="#FF869D"/>
</linearGradient>
<linearGradient id="paint3_linear_436_23139" x1="996.403" y1="422.545" x2="989.698" y2="422.528" gradientUnits="userSpaceOnUse">
<stop stop-color="#FAE2E0"/>
<stop offset="1" stop-color="#FFFEE9"/>
</linearGradient>
<linearGradient id="paint4_linear_436_23139" x1="1031.31" y1="330.033" x2="954.942" y2="323.111" gradientUnits="userSpaceOnUse">
<stop stop-color="#FAE2E0"/>
<stop offset="1" stop-color="#FFFEE9"/>
</linearGradient>
<linearGradient id="paint5_linear_436_23139" x1="5.45139" y1="-0.640791" x2="243.068" y2="12.2087" gradientUnits="userSpaceOnUse">
<stop stop-color="#159DE3"/>
<stop offset="0.95863" stop-color="#7BCDC8"/>
</linearGradient>
<linearGradient id="paint6_linear_436_23139" x1="113.173" y1="419.163" x2="106.468" y2="419.149" gradientUnits="userSpaceOnUse">
<stop stop-color="#FAE2E0"/>
<stop offset="1" stop-color="#FFFEE9"/>
</linearGradient>
<linearGradient id="paint7_linear_436_23139" x1="111.377" y1="333.689" x2="60.4505" y2="330.029" gradientUnits="userSpaceOnUse">
<stop stop-color="#FAE2E0"/>
<stop offset="1" stop-color="#FFFEE9"/>
</linearGradient>
<linearGradient id="paint8_linear_436_23139" x1="147.131" y1="246.717" x2="107.164" y2="244.19" gradientUnits="userSpaceOnUse">
<stop stop-color="#FAE2E0"/>
<stop offset="1" stop-color="#FFFEE9"/>
</linearGradient>
<linearGradient id="paint9_linear_436_23139" x1="469.156" y1="387.401" x2="499.285" y2="381.821" gradientUnits="userSpaceOnUse">
<stop stop-color="#71B4F8"/>
<stop offset="1" stop-color="#E0F5FB"/>
</linearGradient>
<linearGradient id="paint10_linear_436_23139" x1="505" y1="382.777" x2="545.079" y2="379.116" gradientUnits="userSpaceOnUse">
<stop stop-color="#5A7DB6"/>
<stop offset="1" stop-color="#67123B"/>
</linearGradient>
<linearGradient id="paint11_linear_436_23139" x1="553.95" y1="202.894" x2="453.206" y2="217.46" gradientUnits="userSpaceOnUse">
<stop stop-color="#E1CC45"/>
<stop offset="1" stop-color="#2CA57E"/>
</linearGradient>
<linearGradient id="paint12_linear_436_23139" x1="733.155" y1="280.181" x2="580.668" y2="293.63" gradientUnits="userSpaceOnUse">
<stop stop-color="#159DE3"/>
<stop offset="0.95863" stop-color="#7BCDC8"/>
</linearGradient>
<linearGradient id="paint13_linear_436_23139" x1="500.485" y1="280.943" x2="349.53" y2="294.256" gradientUnits="userSpaceOnUse">
<stop stop-color="#159DE3"/>
<stop offset="0.95863" stop-color="#7BCDC8"/>
</linearGradient>
<linearGradient id="paint14_linear_436_23139" x1="512.056" y1="272.945" x2="346" y2="439" gradientUnits="userSpaceOnUse">
<stop stop-color="#FD6585"/>
<stop offset="1" stop-color="#0D25B9"/>
</linearGradient>
<linearGradient id="paint15_linear_436_23139" x1="410.992" y1="375.015" x2="448.912" y2="371.548" gradientUnits="userSpaceOnUse">
<stop stop-color="#71B4F8"/>
<stop offset="1" stop-color="#E0F5FB"/>
</linearGradient>
<linearGradient id="paint16_linear_436_23139" x1="744" y1="272.945" x2="577.944" y2="439" gradientUnits="userSpaceOnUse">
<stop stop-color="#FD6585"/>
<stop offset="1" stop-color="#0D25B9"/>
</linearGradient>
<linearGradient id="paint17_linear_436_23139" x1="642.936" y1="375.015" x2="680.856" y2="371.548" gradientUnits="userSpaceOnUse">
<stop stop-color="#71B4F8"/>
<stop offset="1" stop-color="#E0F5FB"/>
</linearGradient>
<linearGradient id="paint18_linear_436_23139" x1="610.23" y1="240.513" x2="419.721" y2="267.076" gradientUnits="userSpaceOnUse">
<stop stop-color="#159DE3"/>
<stop offset="0.95863" stop-color="#7BCDC8"/>
</linearGradient>
<linearGradient id="paint19_linear_436_23139" x1="666.464" y1="217.661" x2="597.56" y2="220.534" gradientUnits="userSpaceOnUse">
<stop stop-color="#159DE3"/>
<stop offset="0.95863" stop-color="#7BCDC8"/>
</linearGradient>
<linearGradient id="paint20_linear_436_23139" x1="561" y1="91.5" x2="623" y2="52" gradientUnits="userSpaceOnUse">
<stop stop-color="#6B2A1C"/>
<stop offset="1" stop-color="#BA3E23"/>
</linearGradient>
<linearGradient id="paint21_linear_436_23139" x1="574.674" y1="98.6903" x2="437.311" y2="116.59" gradientUnits="userSpaceOnUse">
<stop stop-color="#DD3030"/>
<stop offset="1" stop-color="#FEAF72"/>
</linearGradient>
<linearGradient id="paint22_linear_436_23139" x1="602.7" y1="97.7483" x2="542.899" y2="102.874" gradientUnits="userSpaceOnUse">
<stop stop-color="#DD3030"/>
<stop offset="1" stop-color="#FEAF72"/>
</linearGradient>
<linearGradient id="paint23_linear_436_23139" x1="537.362" y1="398.099" x2="567.513" y2="392.665" gradientUnits="userSpaceOnUse">
<stop stop-color="#71B4F8"/>
<stop offset="1" stop-color="#E0F5FB"/>
</linearGradient>
<linearGradient id="paint24_linear_436_23139" x1="529.575" y1="192.929" x2="440.587" y2="202.835" gradientUnits="userSpaceOnUse">
<stop stop-color="#E1CC45"/>
<stop offset="1" stop-color="#2CA57E"/>
</linearGradient>
<linearGradient id="paint25_linear_436_23139" x1="532.5" y1="387.544" x2="575.543" y2="382.009" gradientUnits="userSpaceOnUse">
<stop stop-color="#5A7DB6"/>
<stop offset="1" stop-color="#67123B"/>
</linearGradient>
<linearGradient id="paint26_linear_436_23139" x1="543.3" y1="93.057" x2="546.194" y2="76.9042" gradientUnits="userSpaceOnUse">
<stop stop-color="#F7AC0A"/>
<stop offset="1" stop-color="#FED851"/>
</linearGradient>
<linearGradient id="paint27_linear_436_23139" x1="568.868" y1="81.1449" x2="576.189" y2="36.9979" gradientUnits="userSpaceOnUse">
<stop stop-color="#F7AC0A"/>
<stop offset="1" stop-color="#FED851"/>
</linearGradient>
<clipPath id="clip0_436_23139">
<rect width="1091" height="442" fill="white"/>
</clipPath>
</defs>
</svg>
